<?xml version="1.0" standalone="no"?><!DOCTYPE svg PUBLIC "-//W3C//DTD SVG 1.1//EN" "http://www.w3.org/Graphics/SVG/1.1/DTD/svg11.dtd"><svg t="1564741988671" class="icon" viewBox="0 0 1024 1024" version="1.1" xmlns="http://www.w3.org/2000/svg" p-id="1217" xmlns:xlink="http://www.w3.org/1999/xlink" width="200" height="200"><defs><style type="text/css"></style></defs><path d="M512 0C229.376 0 0 229.376 0 512s229.376 512 512 512 512-229.376 512-512S794.624 0 512 0z m49.664 736.256c0 26.112-20.992 47.104-47.104 47.104h-5.632c-26.112 0-47.104-20.992-47.104-47.104V481.792c0-26.112 21.504-47.616 48.128-47.104h4.608c26.112 0 47.616 20.992 47.616 47.104v254.464z m7.168-429.056c-5.632 25.6-22.016 40.96-49.152 46.08-6.144 1.024-12.288 1.024-18.432 0-26.112-5.632-41.472-20.992-46.592-47.104-1.024-5.632-1.024-11.776 0-17.408 5.12-26.112 20.48-41.984 46.592-47.616 6.144-1.536 12.288-1.536 18.432 0 27.136 5.632 43.52 20.992 49.152 46.592 1.536 6.656 1.536 13.312 0 19.456z" fill="#E9994B" p-id="1218"></path></svg>